<?xml version="1.0" encoding="UTF-8"?>
<svg id="Layer_1" data-name="Layer 1" xmlns="http://www.w3.org/2000/svg" viewBox="0 0 512 512">
  <rect x="0" width="512" height="512" style="fill: #1a1a1a;"/>
  <g>
    <rect x="82.18" y="94.01" width="347.89" height="322.69" style="fill: none;"/>
    <path d="M108.54,167.93h56.32c24.06,0,43.86,4.65,59.39,13.95,15.53,9.3,26.84,21.34,33.92,36.1,7.08,14.76,10.62,30.59,10.62,47.49,0,18.09-4.27,34.05-12.8,47.87-8.54,13.82-20.01,24.45-34.43,31.87-14.42,7.42-30.25,11.14-47.49,11.14h-65.54v-188.42ZM167.68,320.5c19.28,0,34.56-4.95,45.82-14.85,11.26-9.9,16.9-24.15,16.9-42.75,0-15.02-3.12-26.96-9.34-35.84-6.23-8.87-13.48-15.02-21.76-18.43-8.28-3.41-16.09-5.12-23.42-5.12h-30.21v116.99h22.02Z" style="fill: #ff391f;"/>
    <path d="M406.91,275.06c5.54,7.42,8.32,16,8.32,25.73,0,19.12-6.27,33.15-18.82,42.11s-28.2,13.44-46.98,13.44h-62.72v-188.42h55.3c19.97,0,35.67,4.06,47.1,12.16,11.43,8.11,17.15,19.84,17.15,35.2,0,9.39-1.96,17.62-5.89,24.7-3.93,7.08-9.47,12.76-16.64,17.02,9.9,4.61,17.62,10.62,23.17,18.05ZM323.84,244.98h22.53c6.82,0,12.12-2.09,15.87-6.27,3.75-4.18,5.63-9.34,5.63-15.49s-2.14-11.14-6.4-14.46c-4.27-3.33-10.16-4.99-17.66-4.99h-19.97v41.22ZM368.76,316.54c5.38-3.5,8.06-8.74,8.06-15.74,0-13.31-10.58-19.97-31.74-19.97h-21.25v40.96h23.81c8.7,0,15.74-1.75,21.12-5.25Z" style="fill: #ff391f;"/>
  </g>
  <g>
    <line x1="24.51" y1="155.65" x2="24.51" y2="17.05" style="fill: #c7c7c7; stroke: #ff391f; stroke-miterlimit: 10; stroke-width: 16px;"/>
    <line x1="155.11" y1="25.05" x2="16.51" y2="25.05" style="fill: #c7c7c7; stroke: #ff391f; stroke-miterlimit: 10; stroke-width: 16px;"/>
  </g>
  <g>
    <line x1="487.49" y1="155.65" x2="487.49" y2="17.05" style="fill: #231f20; stroke: #ff391f; stroke-miterlimit: 10; stroke-width: 16px;"/>
    <line x1="356.89" y1="25.05" x2="495.49" y2="25.05" style="fill: #231f20; stroke: #ff391f; stroke-miterlimit: 10; stroke-width: 16px;"/>
  </g>
  <g>
    <line x1="24.51" y1="356.35" x2="24.51" y2="494.95" style="fill: #231f20; stroke: #ff391f; stroke-miterlimit: 10; stroke-width: 16px;"/>
    <line x1="155.11" y1="486.95" x2="16.51" y2="486.95" style="fill: #231f20; stroke: #ff391f; stroke-miterlimit: 10; stroke-width: 16px;"/>
  </g>
  <g>
    <line x1="487.49" y1="356.35" x2="487.49" y2="494.95" style="fill: #231f20; stroke: #ff391f; stroke-miterlimit: 10; stroke-width: 16px;"/>
    <line x1="356.89" y1="486.95" x2="495.49" y2="486.95" style="fill: #231f20; stroke: #ff391f; stroke-miterlimit: 10; stroke-width: 16px;"/>
  </g>
</svg>