<?xml version="1.0" encoding="UTF-8"?>
<svg id="Layer_1" data-name="Layer 1" xmlns="http://www.w3.org/2000/svg" viewBox="0 0 757.53 59.78">
  <g>
    <rect x="-3.32" y=".82" width="603.07" height="78.64" style="fill: none;"/>
    <path d="M3.52,4.63h15.84c6.77,0,12.34,1.31,16.7,3.92,4.37,2.62,7.55,6,9.54,10.15,1.99,4.15,2.99,8.6,2.99,13.36,0,5.09-1.2,9.58-3.6,13.46-2.4,3.89-5.63,6.88-9.68,8.96s-8.51,3.13-13.36,3.13H3.52V4.63ZM20.15,47.54c5.42,0,9.72-1.39,12.89-4.18,3.17-2.78,4.75-6.79,4.75-12.02,0-4.22-.88-7.58-2.63-10.08-1.75-2.5-3.79-4.22-6.12-5.18-2.33-.96-4.52-1.44-6.59-1.44h-8.5v32.9h6.19Z" style="fill: #fff;"/>
    <path d="M80.41,57.62l-11.16-16.85h-6.99v16.85h-10.44V4.63h16.06c6.58,0,11.68,1.6,15.3,4.79,3.62,3.19,5.44,7.55,5.44,13.07,0,3.26-.68,6.32-2.05,9.18-1.37,2.86-3.47,5.1-6.3,6.73l12.31,19.22h-12.17ZM62.27,30.7h7.42c2.83,0,4.89-.83,6.19-2.48,1.29-1.66,1.94-3.44,1.94-5.36s-.55-3.75-1.66-5.51c-1.1-1.75-3.24-2.63-6.41-2.63h-7.49v15.98Z" style="fill: #fff;"/>
    <path d="M92.62,17.74c2.42-4.18,5.71-7.5,9.86-9.97,4.15-2.47,8.65-3.71,13.5-3.71s9.35,1.24,13.5,3.71c4.15,2.47,7.46,5.8,9.94,9.97,2.47,4.18,3.71,8.66,3.71,13.46s-1.24,9.41-3.71,13.54c-2.47,4.13-5.79,7.4-9.94,9.83-4.15,2.42-8.65,3.64-13.5,3.64s-9.41-1.21-13.54-3.64c-4.13-2.42-7.41-5.7-9.83-9.83-2.43-4.13-3.64-8.64-3.64-13.54s1.21-9.29,3.64-13.46ZM101.98,39.7c1.46,2.59,3.46,4.64,5.98,6.16,2.52,1.51,5.31,2.27,8.39,2.27s5.69-.76,8.14-2.27c2.45-1.51,4.37-3.55,5.76-6.12,1.39-2.57,2.09-5.41,2.09-8.53s-.72-6.05-2.16-8.64c-1.44-2.59-3.4-4.64-5.87-6.16-2.47-1.51-5.22-2.27-8.24-2.27s-5.77.76-8.24,2.27c-2.47,1.51-4.43,3.56-5.87,6.16-1.44,2.59-2.16,5.47-2.16,8.64s.73,5.9,2.2,8.5Z" style="fill: #fff;"/>
    <path d="M194.1,4.63v55.15h-.29l-37.08-33.48.21,31.32h-10.58V2.54h.43l37.01,33.98-.22-31.9h10.51Z" style="fill: #fff;"/>
    <path d="M236.72,4.63v10.08h-25.71v11.3h22.75v10.08h-22.75v11.45h26.71v10.08h-37.15V4.63h36.14Z" style="fill: #fff;"/>
    <path d="M291.33,34.76c1.56,2.09,2.34,4.5,2.34,7.24,0,5.38-1.76,9.32-5.29,11.84-3.53,2.52-7.93,3.78-13.21,3.78h-17.64V4.63h15.55c5.62,0,10.03,1.14,13.25,3.42,3.21,2.28,4.82,5.58,4.82,9.9,0,2.64-.55,4.96-1.66,6.95-1.11,1.99-2.66,3.59-4.68,4.79,2.78,1.3,4.96,2.99,6.52,5.08ZM267.97,26.3h6.34c1.92,0,3.41-.59,4.46-1.76,1.05-1.18,1.58-2.63,1.58-4.36s-.6-3.13-1.8-4.07c-1.2-.94-2.86-1.4-4.97-1.4h-5.62v11.59ZM280.61,46.43c1.51-.98,2.27-2.46,2.27-4.43,0-3.74-2.98-5.62-8.93-5.62h-5.97v11.52h6.7c2.45,0,4.43-.49,5.94-1.48Z" style="fill: #ff391f;"/>
    <path d="M325.5,57.62l-11.16-16.85h-6.98v16.85h-10.44V4.63h16.06c6.58,0,11.68,1.6,15.3,4.79,3.62,3.19,5.44,7.55,5.44,13.07,0,3.26-.68,6.32-2.05,9.18-1.37,2.86-3.47,5.1-6.3,6.73l12.31,19.22h-12.17ZM307.35,30.7h7.42c2.83,0,4.89-.83,6.19-2.48,1.29-1.66,1.94-3.44,1.94-5.36s-.55-3.75-1.66-5.51c-1.1-1.75-3.24-2.63-6.41-2.63h-7.49v15.98Z" style="fill: #ff391f;"/>
    <path d="M337.7,17.74c2.42-4.18,5.71-7.5,9.86-9.97,4.15-2.47,8.65-3.71,13.5-3.71s9.35,1.24,13.5,3.71c4.15,2.47,7.46,5.8,9.94,9.97,2.47,4.18,3.71,8.66,3.71,13.46s-1.24,9.41-3.71,13.54c-2.47,4.13-5.79,7.4-9.94,9.83-4.15,2.42-8.65,3.64-13.5,3.64s-9.41-1.21-13.54-3.64c-4.13-2.42-7.41-5.7-9.83-9.83-2.43-4.13-3.64-8.64-3.64-13.54s1.21-9.29,3.64-13.46ZM347.06,39.7c1.46,2.59,3.46,4.64,5.98,6.16,2.52,1.51,5.31,2.27,8.39,2.27s5.69-.76,8.14-2.27c2.45-1.51,4.37-3.55,5.76-6.12,1.39-2.57,2.09-5.41,2.09-8.53s-.72-6.05-2.16-8.64c-1.44-2.59-3.4-4.64-5.87-6.16-2.47-1.51-5.22-2.27-8.24-2.27s-5.77.76-8.24,2.27c-2.47,1.51-4.43,3.56-5.87,6.16-1.44,2.59-2.16,5.47-2.16,8.64s.73,5.9,2.2,8.5Z" style="fill: #ff391f;"/>
    <path d="M421.76,4.63v10.08h-12.89v42.91h-10.44V14.71h-12.38V4.63h35.71Z" style="fill: #ff391f;"/>
    <path d="M469.21,57.62h-10.44v-21.53h-23.69v21.53h-10.44V4.63h10.44v21.38h23.69V4.63h10.44v52.99Z" style="fill: #ff391f;"/>
    <path d="M511.83,4.63v10.08h-25.71v11.3h22.75v10.08h-22.75v11.45h26.71v10.08h-37.15V4.63h36.14Z" style="fill: #ff391f;"/>
    <path d="M545.02,57.62l-11.16-16.85h-6.98v16.85h-10.44V4.63h16.06c6.58,0,11.68,1.6,15.3,4.79,3.62,3.19,5.44,7.55,5.44,13.07,0,3.26-.68,6.32-2.05,9.18-1.37,2.86-3.47,5.1-6.3,6.73l12.31,19.22h-12.17ZM526.88,30.7h7.42c2.83,0,4.89-.83,6.19-2.48,1.29-1.66,1.94-3.44,1.94-5.36s-.55-3.75-1.66-5.51c-1.1-1.75-3.24-2.63-6.41-2.63h-7.49v15.98Z" style="fill: #ff391f;"/>
    <path d="M574.9,13.63c-2.3,0-4.09.46-5.36,1.37-1.27.91-1.91,2.28-1.91,4.1,0,1.68.92,3.16,2.77,4.43,1.85,1.27,4.31,2.48,7.38,3.64,2.49.91,4.63,1.96,6.41,3.13,1.77,1.18,3.25,2.8,4.43,4.86,1.18,2.06,1.76,4.68,1.76,7.85,0,2.74-.71,5.27-2.12,7.6s-3.49,4.18-6.23,5.54c-2.74,1.37-6,2.05-9.79,2.05-3.17,0-6.31-.47-9.43-1.4-3.12-.94-6.03-2.36-8.71-4.28l4.61-8.14c1.82,1.34,3.91,2.45,6.26,3.31,2.35.86,4.46,1.3,6.34,1.3,2.21,0,4.13-.47,5.76-1.4,1.63-.94,2.45-2.46,2.45-4.57,0-2.74-2.57-5.11-7.7-7.13-3.02-1.2-5.54-2.35-7.56-3.46-2.02-1.1-3.76-2.69-5.22-4.75-1.46-2.06-2.2-4.66-2.2-7.78,0-4.56,1.5-8.23,4.5-11.02,3-2.78,7-4.29,11.99-4.54,3.94,0,7.22.44,9.86,1.33,2.64.89,5.21,2.15,7.71,3.78l-3.96,7.99c-4.61-2.54-8.62-3.82-12.02-3.82Z" style="fill: #ff391f;"/>
  </g>
  <g>
    <rect x="606.36" y="2.36" width="156.22" height="54.65" style="fill: none;"/>
    <path d="M645.59,17.51h8.32c2.81,0,5.09.53,6.86,1.58,1.76,1.06,3.04,2.45,3.83,4.19.79,1.74,1.19,3.67,1.19,5.78,0,.36-.02.9-.07,1.62-.22,2.64-.98,4.94-2.29,6.91-1.31,1.97-2.99,3.48-5.04,4.54-2.05,1.06-4.25,1.58-6.61,1.58h-9.4l3.2-26.21ZM651.64,39.69c2.76,0,5.03-.8,6.82-2.41,1.79-1.61,2.79-3.9,3.01-6.88.05-.58.07-.98.07-1.22,0-1.78-.38-3.24-1.15-4.39-.77-1.15-1.75-1.99-2.93-2.5-1.19-.52-2.44-.77-3.76-.77h-4.39l-2.23,18.18h4.57Z" style="fill: #fff;"/>
    <path d="M679.79,21.18c-1.32,0-2.34.29-3.06.86-.72.58-1.13,1.32-1.22,2.23-.07.94.32,1.76,1.19,2.48.86.72,2.09,1.43,3.67,2.12,1.73.77,3.09,1.67,4.09,2.7,1,1.03,1.49,2.46,1.49,4.28,0,1.37-.34,2.67-1.03,3.91-.68,1.24-1.69,2.24-3.02,3.01-1.33.77-2.95,1.15-4.84,1.15-1.75,0-3.42-.29-5-.86-1.58-.58-2.99-1.39-4.21-2.45l2.23-3.13c.87.79,1.92,1.45,3.17,1.96,1.25.52,2.42.77,3.53.77,1.29,0,2.39-.32,3.29-.97.9-.65,1.4-1.54,1.49-2.66.07-.94-.26-1.76-.99-2.47-.73-.71-1.75-1.35-3.04-1.93-1.34-.62-2.44-1.21-3.28-1.75-.84-.54-1.57-1.25-2.2-2.12s-.94-1.93-.94-3.15c0-1.58.38-2.96,1.13-4.14s1.79-2.07,3.11-2.68c1.32-.61,2.81-.91,4.46-.88,1.73.07,3.22.35,4.46.83,1.25.48,2.45,1.13,3.6,1.94l-2.02,3.06c-2.33-1.42-4.36-2.12-6.08-2.12Z" style="fill: #fff;"/>
    <path d="M707.19,19.46c1.54,1.3,2.3,3.11,2.3,5.44,0,1.58-.35,3.12-1.04,4.61-.7,1.49-1.79,2.71-3.29,3.67-1.5.96-3.4,1.44-5.71,1.44h-3.67l-1.12,9.11h-4.32l3.2-26.21h7.38c2.64,0,4.73.65,6.26,1.94ZM702.87,29.73c.79-.56,1.37-1.24,1.73-2.02.36-.78.54-1.52.54-2.21,0-1.01-.34-1.92-1.01-2.74-.67-.82-1.74-1.22-3.2-1.22h-3.53l-1.12,9.04h3.53c1.25,0,2.27-.28,3.06-.85Z" style="fill: #fff;"/>
    <path d="M722.66,25.71l-.58,4.82h4.75l-.43,3.53h-4.75l-.58,4.79h-3.71l.61-4.79h-4.75l.43-3.53h4.75l.58-4.82h3.67Z" style="fill: #fff;"/>
  </g>
  <path d="M752.29,5.73v47.9h-135.64V5.73h135.64M754.54,3.47h-140.15v52.41h140.15V3.47h0Z" style="fill: #fff;"/>
</svg>