<?xml version="1.0" encoding="UTF-8"?>
<svg id="Layer_1" data-name="Layer 1" xmlns="http://www.w3.org/2000/svg" viewBox="0 0 387.96 221.85">
  <g>
    <rect x="-1.82" y="-1.16" width="424.04" height="187.85" style="fill: none;"/>
    <path d="M5.91,3.35h17.89c7.64,0,13.93,1.55,18.87,4.64,4.93,3.09,8.53,7.09,10.78,12,2.25,4.91,3.38,10.17,3.38,15.79,0,6.02-1.36,11.32-4.07,15.92-2.71,4.6-6.36,8.13-10.94,10.6-4.58,2.47-9.61,3.7-15.09,3.7H5.91V3.35ZM24.69,54.08c6.13,0,10.98-1.64,14.56-4.94,3.58-3.29,5.37-8.03,5.37-14.21,0-4.99-.99-8.97-2.97-11.92-1.98-2.95-4.28-4.99-6.91-6.13-2.63-1.13-5.11-1.7-7.44-1.7h-9.6v38.9h7Z" style="fill: #fff;"/>
    <path d="M92.77,66l-12.61-19.92h-7.89v19.92h-11.79V3.35h18.14c7.43,0,13.19,1.89,17.28,5.66,4.09,3.77,6.14,8.92,6.14,15.45,0,3.86-.77,7.48-2.32,10.85-1.54,3.38-3.92,6.03-7.12,7.96l13.91,22.73h-13.75ZM72.27,34.17h8.38c3.2,0,5.53-.98,6.99-2.94s2.2-4.07,2.2-6.34-.62-4.44-1.87-6.51c-1.25-2.07-3.66-3.11-7.24-3.11h-8.46v18.9Z" style="fill: #fff;"/>
    <path d="M106.55,18.85c2.74-4.94,6.45-8.87,11.14-11.79,4.69-2.92,9.77-4.38,15.25-4.38s10.56,1.46,15.25,4.38c4.69,2.92,8.43,6.85,11.22,11.79,2.79,4.94,4.19,10.24,4.19,15.92s-1.4,11.12-4.19,16c-2.79,4.88-6.53,8.75-11.22,11.62-4.69,2.87-9.77,4.3-15.25,4.3s-10.63-1.43-15.29-4.3c-4.66-2.87-8.36-6.74-11.1-11.62-2.74-4.88-4.11-10.21-4.11-16s1.37-10.98,4.11-15.92ZM117.13,44.81c1.65,3.06,3.9,5.49,6.75,7.28,2.85,1.79,6,2.68,9.47,2.68s6.43-.89,9.19-2.68c2.76-1.79,4.93-4.2,6.51-7.24,1.57-3.04,2.36-6.4,2.36-10.09s-.81-7.15-2.44-10.21-3.84-5.49-6.63-7.28c-2.79-1.79-5.9-2.68-9.31-2.68s-6.52.89-9.31,2.68c-2.79,1.79-5,4.21-6.63,7.28-1.63,3.06-2.44,6.47-2.44,10.21s.83,6.98,2.48,10.04Z" style="fill: #fff;"/>
    <path d="M221.19,3.35v65.2h-.33l-41.89-39.58.24,37.03h-11.96V.89h.49l41.8,40.18-.24-37.71h11.88Z" style="fill: #fff;"/>
    <path d="M269.34,3.35v11.92h-29.04v13.36h25.7v11.92h-25.7v13.53h30.17v11.92h-41.97V3.35h40.83Z" style="fill: #fff;"/>
    <path d="M44.09,115.82c1.76,2.47,2.64,5.32,2.64,8.55,0,6.36-1.99,11.02-5.98,14s-8.96,4.47-14.92,4.47H5.91v-62.65h17.57c6.34,0,11.33,1.35,14.96,4.04,3.63,2.7,5.45,6.6,5.45,11.7,0,3.12-.62,5.86-1.87,8.21-1.25,2.36-3.01,4.24-5.29,5.66,3.14,1.53,5.6,3.53,7.36,6ZM17.7,105.82h7.16c2.17,0,3.85-.69,5.04-2.08,1.19-1.39,1.79-3.11,1.79-5.15s-.68-3.7-2.03-4.81c-1.36-1.11-3.23-1.66-5.61-1.66h-6.34v13.7ZM31.97,129.61c1.71-1.16,2.56-2.91,2.56-5.23,0-4.43-3.36-6.64-10.08-6.64h-6.75v13.62h7.56c2.77,0,5-.58,6.71-1.75Z" style="fill: #ff391f;"/>
    <path d="M82.68,142.85l-12.61-19.92h-7.89v19.92h-11.79v-62.65h18.14c7.43,0,13.19,1.89,17.28,5.66,4.09,3.77,6.14,8.92,6.14,15.45,0,3.86-.77,7.48-2.32,10.85-1.54,3.38-3.92,6.03-7.12,7.96l13.91,22.73h-13.75ZM62.19,111.01h8.38c3.2,0,5.53-.98,6.99-2.94s2.2-4.07,2.2-6.34-.62-4.44-1.87-6.51c-1.25-2.07-3.66-3.11-7.24-3.11h-8.46v18.9Z" style="fill: #ff391f;"/>
    <path d="M96.47,95.69c2.74-4.94,6.45-8.87,11.14-11.79,4.69-2.92,9.77-4.38,15.25-4.38s10.56,1.46,15.25,4.38c4.69,2.92,8.43,6.85,11.22,11.79,2.79,4.94,4.19,10.24,4.19,15.92s-1.4,11.12-4.19,16c-2.79,4.88-6.53,8.75-11.22,11.62-4.69,2.87-9.77,4.3-15.25,4.3s-10.63-1.43-15.29-4.3c-4.66-2.87-8.36-6.74-11.1-11.62-2.74-4.88-4.11-10.21-4.11-16s1.37-10.98,4.11-15.92ZM107.04,121.65c1.65,3.06,3.9,5.49,6.75,7.28,2.85,1.79,6,2.68,9.47,2.68s6.43-.89,9.19-2.68c2.76-1.79,4.93-4.2,6.51-7.24,1.57-3.04,2.36-6.4,2.36-10.09s-.81-7.15-2.44-10.21-3.84-5.49-6.63-7.28c-2.79-1.79-5.9-2.68-9.31-2.68s-6.52.89-9.31,2.68c-2.79,1.79-5,4.21-6.63,7.28-1.63,3.06-2.44,6.47-2.44,10.21s.83,6.98,2.48,10.04Z" style="fill: #ff391f;"/>
    <path d="M191.42,80.2v11.92h-14.56v50.73h-11.79v-50.73h-13.99v-11.92h40.34Z" style="fill: #ff391f;"/>
    <path d="M245.02,142.85h-11.79v-25.45h-26.76v25.45h-11.79v-62.65h11.79v25.28h26.76v-25.28h11.79v62.65Z" style="fill: #ff391f;"/>
    <path d="M293.17,80.2v11.92h-29.04v13.36h25.7v11.92h-25.7v13.53h30.17v11.92h-41.97v-62.65h40.83Z" style="fill: #ff391f;"/>
    <path d="M330.66,142.85l-12.61-19.92h-7.89v19.92h-11.79v-62.65h18.14c7.43,0,13.19,1.89,17.28,5.66,4.09,3.77,6.14,8.92,6.14,15.45,0,3.86-.77,7.48-2.32,10.85-1.54,3.38-3.92,6.03-7.12,7.96l13.91,22.73h-13.75ZM310.17,111.01h8.38c3.2,0,5.53-.98,6.99-2.94s2.2-4.07,2.2-6.34-.62-4.44-1.87-6.51c-1.25-2.07-3.66-3.11-7.24-3.11h-8.46v18.9Z" style="fill: #ff391f;"/>
    <path d="M364.42,90.84c-2.6,0-4.62.54-6.06,1.62-1.44,1.08-2.16,2.7-2.16,4.85,0,1.99,1.04,3.73,3.13,5.23,2.09,1.5,4.87,2.94,8.34,4.3,2.82,1.08,5.23,2.31,7.24,3.7,2.01,1.39,3.67,3.31,5,5.75,1.33,2.44,1.99,5.53,1.99,9.28,0,3.23-.8,6.23-2.4,8.98-1.6,2.75-3.95,4.94-7.04,6.55-3.09,1.62-6.78,2.43-11.06,2.43-3.58,0-7.13-.55-10.65-1.66-3.53-1.11-6.81-2.79-9.84-5.07l5.21-9.62c2.06,1.59,4.42,2.89,7.08,3.92,2.66,1.02,5.04,1.53,7.16,1.53,2.49,0,4.66-.55,6.51-1.66,1.84-1.11,2.77-2.91,2.77-5.41,0-3.23-2.9-6.04-8.7-8.43-3.42-1.42-6.26-2.78-8.54-4.09-2.28-1.3-4.24-3.18-5.9-5.62-1.65-2.44-2.48-5.5-2.48-9.19,0-5.39,1.69-9.73,5.08-13.02,3.39-3.29,7.9-5.08,13.54-5.36,4.45,0,8.16.53,11.14,1.57,2.98,1.05,5.88,2.54,8.7,4.47l-4.47,9.45c-5.21-3.01-9.73-4.51-13.58-4.51Z" style="fill: #ff391f;"/>
  </g>
  <g>
    <rect x="19.37" y="154.39" width="105.47" height="64.6" style="fill: none;"/>
    <path d="M25.92,172.31h9.39c3.17,0,5.75.62,7.75,1.87,1.99,1.25,3.44,2.9,4.33,4.96.89,2.06,1.34,4.33,1.34,6.83,0,.43-.03,1.06-.08,1.92-.24,3.12-1.11,5.84-2.58,8.17-1.48,2.33-3.38,4.11-5.69,5.36-2.32,1.25-4.81,1.87-7.46,1.87h-10.61l3.62-30.98ZM32.75,198.53c3.12,0,5.69-.95,7.71-2.85,2.02-1.9,3.15-4.61,3.4-8.13.05-.68.08-1.16.08-1.45,0-2.1-.43-3.83-1.3-5.19-.87-1.36-1.97-2.35-3.31-2.96-1.34-.61-2.76-.92-4.25-.92h-4.96l-2.52,21.49h5.16Z" style="fill: #fff;"/>
    <path d="M64.55,176.65c-1.49,0-2.64.34-3.46,1.02s-1.27,1.56-1.38,2.64c-.08,1.11.37,2.09,1.34,2.94.98.85,2.36,1.69,4.15,2.51,1.95.91,3.49,1.97,4.62,3.19,1.12,1.22,1.69,2.91,1.69,5.06,0,1.62-.39,3.16-1.16,4.62-.77,1.46-1.91,2.65-3.42,3.55s-3.33,1.36-5.47,1.36c-1.98,0-3.86-.34-5.65-1.02-1.79-.68-3.38-1.65-4.76-2.89l2.52-3.7c.98.94,2.17,1.71,3.58,2.32,1.41.61,2.74.92,3.99.92,1.46,0,2.7-.38,3.72-1.15,1.02-.77,1.58-1.82,1.69-3.15.08-1.11-.29-2.08-1.12-2.92s-1.97-1.6-3.44-2.28c-1.52-.74-2.75-1.43-3.7-2.06-.95-.64-1.78-1.47-2.48-2.51-.71-1.04-1.06-2.28-1.06-3.72,0-1.87.43-3.5,1.28-4.89.85-1.39,2.03-2.45,3.52-3.17,1.49-.72,3.17-1.07,5.04-1.04,1.95.08,3.63.41,5.04.98,1.41.57,2.77,1.33,4.07,2.3l-2.28,3.62c-2.63-1.67-4.92-2.51-6.87-2.51Z" style="fill: #fff;"/>
    <path d="M95.5,174.61c1.73,1.53,2.6,3.67,2.6,6.43,0,1.87-.39,3.69-1.18,5.45-.79,1.76-2.03,3.21-3.72,4.34s-3.84,1.7-6.45,1.7h-4.15l-1.26,10.77h-4.88l3.62-30.98h8.34c2.98,0,5.34.77,7.08,2.3ZM90.62,186.76c.89-.67,1.54-1.46,1.95-2.38.41-.92.61-1.79.61-2.62,0-1.19-.38-2.27-1.14-3.23s-1.97-1.45-3.62-1.45h-3.99l-1.26,10.68h3.99c1.41,0,2.56-.33,3.46-1Z" style="fill: #fff;"/>
    <path d="M112.98,182l-.65,5.7h5.37l-.49,4.17h-5.37l-.65,5.66h-4.19l.69-5.66h-5.37l.49-4.17h5.37l.65-5.7h4.15Z" style="fill: #fff;"/>
  </g>
  <path d="M130.65,159.15v57.46H8.04v-57.46h122.61M132.91,156.9H5.79v61.96h127.12v-61.96h0Z" style="fill: #fff;"/>
</svg>